<svg width="17" height="19" viewBox="0 0 17 19" fill="none" xmlns="http://www.w3.org/2000/svg">
<path fill-rule="evenodd" clip-rule="evenodd" d="M6.03124 2.34375C6.03124 1.04933 7.08057 0 8.37499 0C9.66941 0 10.7187 1.04933 10.7187 2.34375V2.38582L10.7552 2.36478C11.8762 1.71758 13.3096 2.10166 13.9568 3.22266C14.604 4.34365 14.2199 5.77707 13.0989 6.42428L13.0625 6.44531L13.0989 6.46635C14.2199 7.11356 14.604 8.54697 13.9568 9.66797C13.3096 10.789 11.8762 11.173 10.7552 10.5258L10.7187 10.5048V10.5469C10.7187 11.8413 9.66941 12.8906 8.37499 12.8906C7.08057 12.8906 6.03124 11.8413 6.03124 10.5469V10.5048L5.99481 10.5258C4.87381 11.173 3.44039 10.789 2.79318 9.66797C2.14598 8.54697 2.53006 7.11356 3.65106 6.46635L3.68749 6.44531L3.65106 6.42428C2.53006 5.77707 2.14597 4.34365 2.79318 3.22266C3.44039 2.10166 4.87381 1.71758 5.99481 2.36478L6.03124 2.38582V2.34375ZM10.7187 6.44531C10.7187 7.73973 9.66941 8.78906 8.37499 8.78906C7.08057 8.78906 6.03124 7.73973 6.03124 6.44531C6.03124 5.1509 7.08057 4.10156 8.37499 4.10156C9.66941 4.10156 10.7187 5.1509 10.7187 6.44531Z" fill="url(#paint0_linear_10_6)"/>
<path d="M7.20312 18.75H6.03125C2.79521 18.75 0.171875 16.1267 0.171875 12.8906V11.7188H1.34375C4.57979 11.7188 7.20312 14.3421 7.20312 17.5781V18.75Z" fill="url(#paint1_linear_10_6)"/>
<path d="M10.7188 18.75H9.54688V17.5781C9.54688 14.3421 12.1702 11.7188 15.4062 11.7188H16.5781V12.8906C16.5781 16.1267 13.9548 18.75 10.7188 18.75Z" fill="url(#paint2_linear_10_6)"/>
<defs>
<linearGradient id="paint0_linear_10_6" x1="8.375" y1="0" x2="8.375" y2="18.75" gradientUnits="userSpaceOnUse">
<stop offset="0.9999" stop-color="#167B63"/>
<stop offset="1" stop-color="white"/>
</linearGradient>
<linearGradient id="paint1_linear_10_6" x1="8.375" y1="0" x2="8.375" y2="18.75" gradientUnits="userSpaceOnUse">
<stop offset="0.9999" stop-color="#167B63"/>
<stop offset="1" stop-color="white"/>
</linearGradient>
<linearGradient id="paint2_linear_10_6" x1="8.375" y1="0" x2="8.375" y2="18.75" gradientUnits="userSpaceOnUse">
<stop offset="0.9999" stop-color="#167B63"/>
<stop offset="1" stop-color="white"/>
</linearGradient>
</defs>
</svg>
